<!-- Canva Logo -->
<svg xmlns="http://www.w3.org/2000/svg" viewBox="0 0 24 24">
  <path fill="#00C4CC" d="M12 0C5.373 0 0 5.373 0 12s5.373 12 12 12 12-5.373 12-12S18.627 0 12 0zm5.894 17.787c-.097.186-.253.352-.459.47-.617.353-1.447.096-1.853-.574-.138-.228-.226-.49-.255-.762-.09-.852.197-1.643.643-2.377.18-.296.378-.58.557-.875.17-.28.303-.588.383-.912.043-.174.065-.354.065-.534 0-.81-.504-1.476-1.312-1.476-.456 0-.89.233-1.197.555-.352.37-.614.82-.832 1.289-.504 1.08-.878 2.217-1.187 3.372-.069.256-.131.514-.185.774-.1.477-.323.86-.738 1.098-.343.196-.729.254-1.117.184-.33-.06-.612-.232-.82-.485-.153-.186-.265-.406-.331-.645-.055-.197-.08-.4-.08-.605 0-.467.1-.93.245-1.377.348-1.075.877-2.082 1.513-3.017.136-.2.28-.394.432-.581.176-.217.36-.427.583-.598.138-.106.29-.192.46-.24.225-.063.46-.029.663.096.203.125.345.316.407.541.027.098.04.199.04.3-.001.206-.056.404-.155.58-.103.184-.2.372-.29.563-.043.09-.082.182-.115.277-.048.14-.083.285-.114.43-.078.362-.123.732-.133 1.103.01.15.062.29.148.408.186.253.574.228.866.05.248-.15.42-.398.568-.638.214-.345.391-.71.545-1.085.323-.787.548-1.61.681-2.453.043-.274.073-.55.091-.827.014-.225.008-.452-.019-.676-.012-.097-.031-.193-.056-.287-.037-.138-.092-.269-.155-.395-.168-.335-.417-.622-.716-.846-.405-.305-.892-.481-1.406-.543-.436-.052-.878-.037-1.313.03-.768.12-1.515.38-2.184.779-.922.55-1.682 1.325-2.233 2.242-.446.743-.755 1.562-.927 2.415-.084.416-.136.839-.154 1.264-.016.4.008.802.075 1.197.115.692.358 1.352.73 1.935.298.466.688.865 1.143 1.166.48.318 1.027.523 1.595.6.482.066.974.041 1.446-.068.39-.09.762-.242 1.1-.449.238-.145.46-.314.66-.505.15-.143.288-.298.411-.465.045-.061.087-.125.126-.19.045.247.11.49.198.726.165.442.41.848.718 1.196.336.38.745.686 1.2.897.422.196.878.307 1.342.327.53.023 1.063-.083 1.54-.311.41-.197.778-.476 1.078-.822.134-.154.255-.32.36-.495.104-.17.192-.349.262-.536.055-.146.101-.296.138-.45.032-.133.055-.269.068-.406.022-.232-.008-.467-.089-.684-.115-.307-.364-.521-.66-.617-.166-.054-.346-.065-.52-.03-.139.028-.27.084-.383.167-.295.216-.447.606-.533.939z"/>
</svg>
